<?xml version="1.0" encoding="iso-8859-1"?>
<!-- Generator: Adobe Illustrator 19.0.0, SVG Export Plug-In . SVG Version: 6.00 Build 0)  -->
<svg version="1.1" id="Layer_1" xmlns="http://www.w3.org/2000/svg" xmlns:xlink="http://www.w3.org/1999/xlink" x="0px" y="0px"
	 viewBox="0 0 496.2 496.2" style="enable-background:new 0 0 496.2 496.2;" xml:space="preserve">
<path style="fill:#334D5C;" d="M496.2,248.1C496.2,111.1,385.1,0,248.1,0C111.1,0,0,111.1,0,248.1s111.1,248.1,248.1,248.1
	S496.2,385.1,496.2,248.1z"/>
<path style="fill:#A9B6B7;" d="M195.2,296.1c0-30.1,26-54.6,58-54.6s58,24.4,58,54.6c0,0.2,0,22.1,0,22.2
	c-0.3,29.9-26.1,32.3-58,32.3c-31.7,0-57.5-2.2-58-31.9C195.2,318.5,195.2,296.4,195.2,296.1z"/>
<path style="fill:#2A8F91;" d="M195.2,298.3c0-30.1,26-54.6,58-54.6s58,24.4,58,54.6c0,0,0,22.1,0,22.2c-0.3,29.9-26.1,32.3-58,32.3
	c-31.7,0-57.5-2.2-58-31.9C195.2,320.7,195.2,298.6,195.2,298.3z"/>
<path style="fill:#A9B6B7;" d="M195.2,318.7c0-30.1,26-54.6,58-54.6s58,24.4,58,54.6c0,30.1-26,54.6-58,54.6
	S195.2,348.9,195.2,318.7z"/>
<ellipse style="fill:#D2D6D6;" cx="253.2" cy="320.2" rx="57.1" ry="53.1"/>
<ellipse style="fill:#C4C6C6;" cx="253.2" cy="254.1" rx="10.5" ry="6.1"/>
<path style="fill:#B7BCBC;" d="M209.6,162.5c-17.3-5.5-32.9-5.2-34.7,0.6v0.1L159,213.3l62.8,19.9l15.9-50.1l0,0l0,0
	C239.5,177.2,227,168,209.6,162.5z"/>
<rect x="164.68" y="174.325" transform="matrix(-0.9533 -0.3021 0.3021 -0.9533 325.4199 451.5801)" style="fill:#2D9DA5;" width="65.902" height="52.601"/>
<ellipse transform="matrix(0.3021 -0.9533 0.9533 0.3021 -83.0367 338.3994)" style="fill:#B7BCBC;" cx="189.593" cy="225.91" rx="11.1" ry="32.901"/>
<ellipse transform="matrix(0.3021 -0.9533 0.9533 0.3021 -23.8724 318.3706)" style="fill:#2D9DA5;" cx="205.497" cy="175.489" rx="11.1" ry="32.901"/>
<path style="fill:#B7BCBC;" d="M326.2,168.8c-1.6-5.2-15.4-5.4-30.7-0.5c-15.3,4.9-26.4,13-24.8,18.1l10.1,32.2l55.5-17.6
	L326.2,168.8z"/>
<polygon style="fill:#2D9DA5;" points="281.6,220.8 337.1,203.2 326.9,171 271.4,188.6 "/>
<ellipse transform="matrix(0.3021 0.9533 -0.9533 0.3021 418.1775 -146.8316)" style="fill:#B7BCBC;" cx="309.368" cy="212.181" rx="9.8" ry="29.101"/>
<path style="fill:#2D9DA5;" d="M271.4,188.6c1.6,5.2,15.4,5.4,30.7,0.5c15.3-4.9,26.4-13,24.8-18.1c-1.6-5.2-15.4-5.4-30.7-0.5
	C280.9,175.3,269.8,183.4,271.4,188.6z"/>
<path style="fill:#DDCD5F;" d="M217.4,136.2c-1.5,7.8-30.9,8.5-65.5,1.6S90.5,119,92,111.2c1.6-7.8,30.9-8.5,65.5-1.6
	C192.1,116.5,218.9,128.4,217.4,136.2z"/>
<path style="fill:#A5A8A8;" d="M119.3,350.9c-1.1,0-2.1-0.9-2.2-2l-2.9-36.4c-0.1-1.2,0.8-2.3,2-2.4s2.3,0.8,2.4,2l3,36.4
	c0.1,1.2-0.8,2.3-2,2.4C119.4,350.9,119.3,350.9,119.3,350.9z"/>
<g>
	<path style="fill:#C4C6C6;" d="M116.1,335.1c-1.2,0-2.2-1-2.2-2.2V196.1c0-1.2,1-2.2,2.2-2.2s2.2,1,2.2,2.2v136.8
		C118.3,334.1,117.3,335.1,116.1,335.1z"/>
	<path style="fill:#C4C6C6;" d="M103.5,219.4c-0.3,0-0.5-0.1-0.8-0.2c-0.7-0.4-0.9-1.3-0.5-2l50.9-83.7v-9.7c0-0.8,0.7-1.5,1.5-1.5
		s1.5,0.7,1.5,1.5v10.1c0,0.3-0.1,0.5-0.2,0.8l-51.1,84C104.5,219.2,104,219.4,103.5,219.4z"/>
</g>
<g>
	<circle style="fill:#A5A8A8;" cx="115.8" cy="197.8" r="5.4"/>
	<circle style="fill:#A5A8A8;" cx="116.1" cy="313.8" r="5.9"/>
</g>
<path style="fill:#C4C6C6;" d="M115.8,335.9c-0.2,0-0.4,0-0.6-0.1l-14.3-6.6c-0.7-0.3-1.1-1.2-0.7-2c0.3-0.7,1.2-1.1,2-0.7l13.6,6.3
	l11.4-6.5c0.7-0.4,1.6-0.2,2,0.5s0.2,1.6-0.5,2l-12,6.9C116.3,335.9,116.1,335.9,115.8,335.9z"/>
<ellipse transform="matrix(-0.2668 0.9637 -0.9637 -0.2668 315.6762 7.6442)" style="fill:#A89B3B;" cx="154.93" cy="123.9" rx="2.1" ry="3.9"/>
<path style="fill:#A5A8A8;" d="M69.6,368.6c-0.5,0-1-0.2-1.4-0.5c-0.9-0.8-1-2.2-0.2-3.1l46.7-54.8c0.4-0.5,1-0.8,1.7-0.8
	s1.3,0.3,1.7,0.9l40.3,52.6c0.7,1,0.6,2.4-0.4,3.1s-2.4,0.6-3.1-0.4l-38.7-50.5l-44.9,52.7C70.9,368.4,70.3,368.6,69.6,368.6z"/>
<circle style="fill:#C4C6C6;" cx="154.4" cy="133.7" r="2.9"/>
<path style="fill:#A5A8A8;" d="M395.3,353.7c-0.9,0-1.7-0.7-1.8-1.7l-2.4-30c-0.1-1,0.7-1.9,1.7-2s1.9,0.7,2,1.7l2.4,30
	c0.1,1-0.7,1.9-1.7,2C395.4,353.7,395.4,353.7,395.3,353.7z"/>
<path style="fill:#C4C6C6;" d="M392.7,340.6c-1,0-1.8-0.8-1.8-1.8V225.9c0-1,0.8-1.8,1.8-1.8s1.8,0.8,1.8,1.8v112.9
	C394.5,339.8,393.7,340.6,392.7,340.6z"/>
<circle style="fill:#A5A8A8;" cx="392.7" cy="323" r="4.9"/>
<path style="fill:#C4C6C6;" d="M392.5,340.7c-0.1,0-0.2,0-0.3-0.1l-11.8-5.5c-0.3-0.1-0.4-0.5-0.3-0.8s0.5-0.4,0.8-0.3l11.5,5.3
	l9.7-5.5c0.3-0.2,0.7-0.1,0.8,0.2c0.2,0.3,0.1,0.7-0.2,0.8l-9.9,5.7C392.7,340.7,392.6,340.7,392.5,340.7z"/>
<path style="fill:#A5A8A8;" d="M354.4,368.3c-0.4,0-0.8-0.1-1.2-0.4c-0.8-0.7-0.9-1.8-0.2-2.6l38.5-45.2c0.4-0.4,0.9-0.7,1.4-0.6
	c0.6,0,1.1,0.3,1.4,0.7l33.3,43.4c0.6,0.8,0.5,1.9-0.3,2.6c-0.8,0.6-1.9,0.5-2.6-0.3l-31.9-41.8l-37.1,43.5
	C355.4,368.1,354.9,368.3,354.4,368.3z"/>
<path style="fill:#DDCD5F;" d="M428.8,226.5c0,4.3-16.2,7.8-36.2,7.9c-20,0.1-36.2-3.3-36.2-7.6s16.2-7.8,36.2-7.9
	C412.6,218.9,428.8,222.3,428.8,226.5z"/>
<path style="fill:#C4C6C6;" d="M392.7,208c0.4,0.6,0.7,1.1,0.9,1.7v1.7v3.4v3.4v1.7c-0.3,0.6-0.5,1.1-0.9,1.7
	c-0.4-0.6-0.6-1.1-0.9-1.7v-1.7v-3.4v-3.4v-1.7C392.1,209.2,392.3,208.6,392.7,208z"/>
<path style="fill:#707070;" d="M392.7,224.1c-0.8-0.3-1.3-0.5-1.8-0.8c0-0.3,0-0.5,0-0.8v-1.6v-1.6v-0.8c0.6-0.3,3.1-0.3,3.7,0v0.8
	v1.6v1.6c0,0.3,0,0.5,0,0.8C394,223.6,393.5,223.9,392.7,224.1z"/>
<g>
	
		<line style="fill:none;stroke:#A5A8A8;stroke-width:2.285;stroke-linecap:round;stroke-linejoin:round;stroke-miterlimit:10;" x1="159.3" y1="330.8" x2="160.8" y2="349.6"/>
	
		<line style="fill:none;stroke:#C4C6C6;stroke-width:3.686;stroke-linecap:round;stroke-linejoin:round;stroke-miterlimit:10;" x1="159.2" y1="341.4" x2="159.2" y2="270.8"/>
</g>
<circle style="fill:#A5A8A8;" cx="159.2" cy="331.6" r="3"/>
<g>
	
		<polyline style="fill:none;stroke:#C4C6C6;stroke-width:1.474;stroke-linecap:round;stroke-linejoin:round;stroke-miterlimit:10;" points="
		151.7,338.8 159.1,342.2 165.3,338.7 	"/>
	
		<polyline style="fill:none;stroke:#A5A8A8;stroke-width:2.285;stroke-linecap:round;stroke-linejoin:round;stroke-miterlimit:10;" points="
		135.2,358.7 159.3,330.4 180.1,357.6 	"/>
</g>
<polygon style="fill:#2A8F91;" points="188.3,300 128.7,295.9 132,252.9 191.5,257 "/>
<ellipse transform="matrix(-0.069 0.9976 -0.9976 -0.069 427.5422 111.5018)" style="fill:#B7BCBC;" cx="161.741" cy="255.255" rx="6.6" ry="29.899"/>
<ellipse transform="matrix(-0.069 0.9976 -0.9976 -0.069 427.5448 111.5001)" style="fill:#CDD1D1;" cx="161.744" cy="255.253" rx="5.2" ry="27.999"/>
<path style="fill:#2A8F91;" d="M128.8,296.2c0.3-3.7,13.8-5.7,30.2-4.6c16.5,1.1,29.6,5,29.3,8.7s-13.8,5.7-30.2,4.6
	C141.7,303.7,128.5,299.8,128.8,296.2z"/>
<g>
	
		<line style="fill:none;stroke:#A5A8A8;stroke-width:2.285;stroke-linecap:round;stroke-linejoin:round;stroke-miterlimit:10;" x1="351.1" y1="330.8" x2="349.6" y2="349.6"/>
	
		<line style="fill:none;stroke:#C4C6C6;stroke-width:3.686;stroke-linecap:round;stroke-linejoin:round;stroke-miterlimit:10;" x1="351.2" y1="341.4" x2="351.2" y2="277"/>
</g>
<circle style="fill:#A5A8A8;" cx="351.2" cy="331.6" r="3"/>
<g>
	
		<polyline style="fill:none;stroke:#C4C6C6;stroke-width:1.474;stroke-linecap:round;stroke-linejoin:round;stroke-miterlimit:10;" points="
		358.7,338.8 351.4,342.2 345.2,338.7 	"/>
	
		<polyline style="fill:none;stroke:#A5A8A8;stroke-width:2.285;stroke-linecap:round;stroke-linejoin:round;stroke-miterlimit:10;" points="
		375.2,358.7 351.1,330.4 330.3,357.6 	"/>
</g>
<polygon style="fill:#2A8F91;" points="322.1,300 381.7,295.9 380.4,275 320.9,279.1 "/>
<path style="fill:#B7BCBC;" d="M380.5,275.3c-0.3-3.7-13.8-5.7-30.2-4.6c-16.5,1.1-29.6,5-29.3,8.7c0.3,3.7,13.8,5.7,30.2,4.6
	C367.6,282.9,380.7,279,380.5,275.3z"/>
<ellipse transform="matrix(-0.069 -0.9976 0.9976 -0.069 98.1435 646.3777)" style="fill:#CDD1D1;" cx="350.694" cy="277.392" rx="5.2" ry="27.999"/>
<ellipse transform="matrix(-0.069 -0.9976 0.9976 -0.069 78.6747 669.809)" style="fill:#2A8F91;" cx="351.89" cy="298.193" rx="6.6" ry="29.899"/>
<line style="fill:none;stroke:#AEAFAF;stroke-width:4.423;stroke-linecap:round;stroke-linejoin:round;stroke-miterlimit:10;" x1="253.2" y1="252.4" x2="253.2" y2="218"/>
<ellipse transform="matrix(0.9398 0.3418 -0.3418 0.9398 79.2411 -63.8385)" style="fill:#D6D8D8;" cx="220.773" cy="192.94" rx="5" ry="8.6"/>
<polyline style="fill:none;stroke:#C4C6C6;stroke-width:4.423;stroke-linecap:round;stroke-linejoin:round;stroke-miterlimit:10;" points="
	221.8,193.4 240.9,200.8 237.5,215.5 253.2,218 "/>
<path style="fill:#D6D8D8;" d="M288.9,201c2.6-1,3.4-5.3,1.8-9.8s-5.1-7.3-7.7-6.4c-2.6,1-3.4,5.3-1.8,9.8S286.3,202,288.9,201z"/>
<polyline style="fill:none;stroke:#C4C6C6;stroke-width:4.423;stroke-linecap:round;stroke-linejoin:round;stroke-miterlimit:10;" points="
	285,193.4 265.8,200.8 269.2,215.5 253.5,218 "/>
<g>
</g>
<g>
</g>
<g>
</g>
<g>
</g>
<g>
</g>
<g>
</g>
<g>
</g>
<g>
</g>
<g>
</g>
<g>
</g>
<g>
</g>
<g>
</g>
<g>
</g>
<g>
</g>
<g>
</g>
</svg>
